<svg xmlns="http://www.w3.org/2000/svg" xmlns:xlink="http://www.w3.org/1999/xlink" width="500" zoomAndPan="magnify" viewBox="0 0 375 374.999991" height="500" preserveAspectRatio="xMidYMid meet" version="1.0"><defs><g/><clipPath id="3d2d8c0eb3"><path d="M 20.820312 56.65625 L 353.820312 56.65625 L 353.820312 318.40625 L 20.820312 318.40625 Z M 20.820312 56.65625 " clip-rule="nonzero"/></clipPath></defs><g clip-path="url(#3d2d8c0eb3)"><path fill="#5ce1e6" d="M 44.761719 175.601562 C 48.035156 175.601562 50.707031 178.273438 50.707031 181.546875 C 50.707031 184.824219 48.035156 187.496094 44.761719 187.496094 C 44.761719 190.769531 42.089844 193.441406 38.8125 193.441406 C 35.539062 193.441406 32.867188 190.769531 32.867188 187.496094 C 32.867188 180.945312 38.210938 175.601562 44.761719 175.601562 Z M 67.714844 193.441406 L 116.964844 193.441406 C 119.636719 203.664062 128.859375 211.285156 139.917969 211.285156 C 147.257812 211.285156 153.738281 207.871094 158.105469 202.640625 L 184.730469 215.164062 L 147.488281 272.105469 C 145.097656 271.292969 142.589844 270.757812 139.917969 270.757812 C 136.015625 270.757812 132.390625 271.777344 129.160156 273.453125 L 64.484375 200.761719 C 65.96875 198.578125 67.015625 196.089844 67.714844 193.441406 Z M 145.863281 181.546875 C 145.863281 184.824219 143.191406 187.496094 139.917969 187.496094 C 139.917969 190.769531 137.246094 193.441406 133.96875 193.441406 C 130.695312 193.441406 128.023438 190.769531 128.023438 187.496094 C 128.023438 180.945312 133.367188 175.601562 139.917969 175.601562 C 143.191406 175.601562 145.863281 178.273438 145.863281 181.546875 Z M 129.160156 101.539062 C 132.390625 103.210938 136.015625 104.234375 139.917969 104.234375 C 142.589844 104.234375 145.097656 103.699219 147.488281 102.886719 L 184.730469 159.828125 L 158.105469 172.347656 C 153.738281 167.121094 147.257812 163.707031 139.917969 163.707031 C 128.859375 163.707031 119.636719 171.324219 116.964844 181.546875 L 67.714844 181.546875 C 67.015625 178.898438 65.96875 176.414062 64.484375 174.230469 Z M 139.917969 68.550781 C 143.191406 68.550781 145.863281 71.222656 145.863281 74.496094 C 145.863281 77.773438 143.191406 80.445312 139.917969 80.445312 C 139.917969 83.71875 137.246094 86.390625 133.96875 86.390625 C 130.695312 86.390625 128.023438 83.71875 128.023438 80.445312 C 128.023438 73.894531 133.367188 68.550781 139.917969 68.550781 Z M 218.53125 132.460938 C 217.765625 134.828125 217.230469 137.292969 217.230469 139.917969 C 217.230469 141.425781 217.417969 142.914062 217.671875 144.355469 L 195.578125 154.714844 L 159.871094 100.097656 Z M 223.480469 155.855469 L 209.914062 176.621094 L 202.175781 164.773438 L 222.828125 155.0625 C 223.0625 155.34375 223.269531 155.621094 223.480469 155.855469 Z M 233.445312 162.359375 C 235.839844 163.171875 238.347656 163.707031 241.019531 163.707031 C 248.292969 163.707031 254.75 160.335938 259.117188 155.179688 L 306.90625 182.941406 C 306.625 184.40625 306.441406 185.9375 306.441406 187.496094 C 306.441406 189.050781 306.625 190.585938 306.90625 192.046875 L 259.117188 219.808594 C 254.75 214.652344 248.292969 211.285156 241.019531 211.285156 C 238.347656 211.285156 235.839844 211.820312 233.445312 212.632812 L 217.023438 187.496094 Z M 241.019531 128.023438 C 244.296875 128.023438 246.96875 130.695312 246.96875 133.96875 C 246.96875 137.246094 244.296875 139.917969 241.019531 139.917969 C 241.019531 143.191406 238.347656 145.863281 235.074219 145.863281 C 231.796875 145.863281 229.125 143.191406 229.125 139.917969 C 229.125 133.367188 234.46875 128.023438 241.019531 128.023438 Z M 241.019531 235.074219 C 241.019531 238.347656 238.347656 241.019531 235.074219 241.019531 C 231.796875 241.019531 229.125 238.347656 229.125 235.074219 C 229.125 228.523438 234.46875 223.179688 241.019531 223.179688 C 244.296875 223.179688 246.96875 225.851562 246.96875 229.125 C 246.96875 232.402344 244.296875 235.074219 241.019531 235.074219 Z M 222.828125 219.925781 L 202.175781 210.214844 L 209.914062 198.367188 L 223.480469 219.136719 C 223.269531 219.367188 223.0625 219.648438 222.828125 219.925781 Z M 163.265625 183.058594 L 191.304688 169.886719 L 202.804688 187.496094 L 191.304688 205.105469 L 163.265625 191.933594 C 163.519531 190.492188 163.707031 189.003906 163.707031 187.496094 C 163.707031 185.984375 163.519531 184.5 163.265625 183.058594 Z M 159.871094 274.890625 L 195.578125 220.273438 L 217.671875 230.636719 C 217.417969 232.078125 217.230469 233.5625 217.230469 235.074219 C 217.230469 237.699219 217.765625 240.160156 218.53125 242.53125 Z M 139.917969 294.546875 C 139.917969 297.820312 137.246094 300.492188 133.96875 300.492188 C 130.695312 300.492188 128.023438 297.820312 128.023438 294.546875 C 128.023438 287.996094 133.367188 282.652344 139.917969 282.652344 C 143.191406 282.652344 145.863281 285.324219 145.863281 288.597656 C 145.863281 291.875 143.191406 294.546875 139.917969 294.546875 Z M 330.230469 175.601562 C 333.503906 175.601562 336.175781 178.273438 336.175781 181.546875 C 336.175781 184.824219 333.503906 187.496094 330.230469 187.496094 C 330.230469 190.769531 327.558594 193.441406 324.28125 193.441406 C 321.007812 193.441406 318.335938 190.769531 318.335938 187.496094 C 318.335938 180.945312 323.679688 175.601562 330.230469 175.601562 Z M 44.761719 211.285156 C 48.664062 211.285156 52.265625 210.261719 55.515625 208.589844 L 120.191406 281.28125 C 117.636719 285.066406 116.128906 289.621094 116.128906 294.546875 C 116.128906 307.671875 126.789062 318.335938 139.917969 318.335938 C 153.042969 318.335938 163.707031 307.671875 163.707031 294.546875 C 163.707031 291.921875 163.171875 289.457031 162.40625 287.089844 L 225.011719 252.542969 C 229.242188 256.445312 234.839844 258.863281 241.019531 258.863281 C 254.144531 258.863281 264.808594 248.199219 264.808594 235.074219 C 264.808594 233.515625 264.625 231.984375 264.34375 230.519531 L 312.132812 202.757812 C 316.5 207.914062 322.957031 211.285156 330.230469 211.285156 C 343.355469 211.285156 354.019531 200.621094 354.019531 187.496094 C 354.019531 174.371094 343.355469 163.707031 330.230469 163.707031 C 322.957031 163.707031 316.5 167.074219 312.132812 172.230469 L 264.34375 144.46875 C 264.625 143.007812 264.808594 141.472656 264.808594 139.917969 C 264.808594 126.792969 254.144531 116.128906 241.019531 116.128906 C 234.839844 116.128906 229.242188 118.542969 225.011719 122.445312 L 162.40625 87.902344 C 163.171875 85.53125 163.707031 83.070312 163.707031 80.445312 C 163.707031 67.320312 153.042969 56.65625 139.917969 56.65625 C 126.789062 56.65625 116.128906 67.320312 116.128906 80.445312 C 116.128906 85.371094 117.636719 89.921875 120.191406 93.710938 L 55.515625 166.402344 C 52.265625 164.726562 48.664062 163.707031 44.761719 163.707031 C 31.632812 163.707031 20.972656 174.371094 20.972656 187.496094 C 20.972656 200.621094 31.632812 211.285156 44.761719 211.285156 " fill-opacity="1" fill-rule="nonzero"/></g><g fill="#5ce1e6" fill-opacity="1"><g transform="translate(216.720716, 95.405351)"><g><path d="M 11.640625 0.40625 C 8.578125 0.40625 6.144531 -0.238281 4.34375 -1.53125 C 2.550781 -2.832031 1.414062 -4.664062 0.9375 -7.03125 L 5.21875 -9.03125 L 5.671875 -8.953125 C 6.148438 -7.367188 6.832031 -6.21875 7.71875 -5.5 C 8.613281 -4.78125 9.859375 -4.421875 11.453125 -4.421875 C 12.984375 -4.421875 14.148438 -4.773438 14.953125 -5.484375 C 15.765625 -6.203125 16.171875 -7.242188 16.171875 -8.609375 C 16.171875 -9.953125 15.769531 -10.984375 14.96875 -11.703125 C 14.164062 -12.421875 12.992188 -12.78125 11.453125 -12.78125 L 7.15625 -12.78125 L 7.15625 -17.171875 L 10.90625 -17.171875 C 12.175781 -17.171875 13.1875 -17.488281 13.9375 -18.125 C 14.695312 -18.757812 15.078125 -19.671875 15.078125 -20.859375 C 15.078125 -22.035156 14.722656 -22.914062 14.015625 -23.5 C 13.304688 -24.09375 12.328125 -24.390625 11.078125 -24.390625 C 9.796875 -24.390625 8.664062 -24.085938 7.6875 -23.484375 C 6.707031 -22.890625 5.914062 -22.085938 5.3125 -21.078125 L 4.859375 -21 L 1.890625 -24.453125 C 2.898438 -25.804688 4.191406 -26.894531 5.765625 -27.71875 C 7.335938 -28.550781 9.210938 -28.96875 11.390625 -28.96875 C 14.378906 -28.96875 16.660156 -28.34375 18.234375 -27.09375 C 19.816406 -25.84375 20.609375 -24.082031 20.609375 -21.8125 C 20.609375 -20.445312 20.285156 -19.28125 19.640625 -18.3125 C 19.003906 -17.34375 18.085938 -16.503906 16.890625 -15.796875 L 16.890625 -15.390625 C 20.191406 -14.234375 21.84375 -11.890625 21.84375 -8.359375 C 21.84375 -6.585938 21.460938 -5.046875 20.703125 -3.734375 C 19.953125 -2.421875 18.8125 -1.398438 17.28125 -0.671875 C 15.757812 0.046875 13.878906 0.40625 11.640625 0.40625 Z M 11.640625 0.40625 "/></g></g></g><g fill="#5ce1e6" fill-opacity="1"><g transform="translate(240.351219, 95.405351)"><g><path d="M 13.984375 -28.5625 C 18.617188 -28.5625 22.15625 -27.363281 24.59375 -24.96875 C 27.039062 -22.570312 28.265625 -19.007812 28.265625 -14.28125 C 28.265625 -9.5625 27.039062 -6 24.59375 -3.59375 C 22.15625 -1.195312 18.617188 0 13.984375 0 L 3.71875 0 L 3.71875 -28.5625 Z M 13.65625 -4.75 C 16.59375 -4.75 18.789062 -5.5 20.25 -7 C 21.707031 -8.507812 22.4375 -10.9375 22.4375 -14.28125 C 22.4375 -17.625 21.707031 -20.046875 20.25 -21.546875 C 18.789062 -23.054688 16.59375 -23.8125 13.65625 -23.8125 L 9.359375 -23.8125 L 9.359375 -4.75 Z M 13.65625 -4.75 "/></g></g></g></svg>